<?xml version="1.0"?><svg width="744.09448819" height="1052.3622047" xmlns="http://www.w3.org/2000/svg">
 <title>Jaguar Paw Print in Gold</title>
 <defs>
  <pattern height="100" width="100" y="0" x="0" patternUnits="userSpaceOnUse" id="gridpattern">
   <image height="100" width="100" y="0" x="0"/>
  </pattern>
 </defs>
 <metadata id="metadata7">image/svg+xmlAnimal footprintAnimal footprint traces foot print palm</metadata>
 <g>
  <title>Layer 1</title>
  <g transform="rotate(-0.0975593, 394.293, 276.182)" id="layer1">
   <path fill="#000000" id="path2466" d="m358.954895,480.750824c0.889679,-1.404419 -5.182739,-2.213074 -16.619202,-2.213074c-11.573944,0 -20.345459,-1.182648 -24.518188,-3.305847c-3.573425,-1.818237 -8.283447,-3.312012 -10.466705,-3.319489c-2.183258,-0.007507 -3.969574,-1.009521 -3.969574,-2.226685c0,-1.217133 -2.073486,-2.212982 -4.607788,-2.212982c-2.534302,0 -5.195374,-1.493805 -5.913483,-3.319519c-0.718109,-1.825745 -2.502197,-3.31955 -3.964691,-3.31955c-1.462463,0 -4.160278,-2.113678 -5.995178,-4.697144c-1.834839,-2.583435 -4.612061,-5.997803 -6.171509,-7.587463c-1.559479,-1.589661 -2.835388,-4.016022 -2.835388,-5.391968c0,-1.375916 -0.89325,-1.963104 -1.985016,-1.304779c-1.091736,0.658264 -2.634918,-2.768463 -3.42926,-7.61496c-0.794342,-4.846497 -2.452972,-8.811798 -3.685791,-8.811798c-2.774902,0 -3.028076,-32.459656 -0.266174,-34.125c1.086426,-0.65509 2.619446,-4.333099 3.406708,-8.173401c0.787231,-3.840271 3.324921,-8.591309 5.639282,-10.557831c2.314331,-1.966522 4.937805,-5.830627 5.829865,-8.586914c0.892059,-2.756287 2.460297,-4.50589 3.484955,-3.888062c1.024689,0.617828 2.52359,-1.444305 3.330933,-4.58252c1.281708,-4.982269 4.830292,-8.972198 16.595459,-18.659546c1.559479,-1.284027 2.835388,-4.287079 2.835388,-6.673401c0,-2.386322 0.920532,-4.338776 2.045593,-4.338776c1.125122,0 2.756409,-5.975098 3.625214,-13.278046c0.868774,-7.302917 2.500092,-13.278015 3.625214,-13.278015c1.125061,0 2.045593,-1.424561 2.045593,-3.165649c0,-1.741089 2.271118,-3.483826 5.046875,-3.872742c2.775818,-0.388947 6.333374,-3.196777 7.905701,-6.239716c1.572266,-3.042877 2.873749,-4.586426 2.892151,-3.430145c0.018433,1.156281 1.258331,0.907349 2.755432,-0.553223c1.49707,-1.460602 4.559265,-2.65564 6.804932,-2.65564c2.245605,0 4.082947,-1.28186 4.082947,-2.848572c0,-1.566711 2.123413,-3.004639 4.718689,-3.195374c2.595276,-0.190735 7.32782,-2.892273 10.516724,-6.003479c3.51889,-3.433044 8.351379,-5.656677 12.29364,-5.656677c3.572601,0 6.495636,-0.99585 6.495636,-2.212982c0,-1.217133 3.572601,-2.213043 7.939117,-2.213043c4.366516,0 7.939087,0.995911 7.939087,2.213043c0,1.217133 4.593323,2.212982 10.207458,2.212982c6.264832,0 10.207336,0.997253 10.207336,2.581879c0,1.420013 0.637695,1.959747 1.416992,1.199402c2.092773,-2.041718 20.557373,8.10434 26.899872,14.781158c3.020203,3.179382 6.620972,5.78067 8.00174,5.78067c1.380737,0 1.930939,0.914825 1.222656,2.03299c-0.708313,1.118103 1.783295,2.690979 5.536896,3.4953c3.753601,0.804352 6.824738,2.450317 6.824738,3.657654c0,2.753906 3.887024,6.568298 11.908661,11.686279c3.430817,2.188965 6.237854,4.932404 6.237854,6.096497c0,2.856812 5.894714,8.439453 8.911224,8.439453c1.3367,0 2.430328,1.99173 2.430328,4.425995c0,2.434326 1.001343,4.426025 2.225128,4.426025c1.223785,0 2.86557,2.489624 3.648376,5.532532c0.782806,3.042908 2.264557,5.532532 3.292816,5.532532c1.028259,0 2.583374,2.194214 3.455811,4.876038c0.872467,2.681854 2.982697,6.238464 4.689484,7.903625c1.706726,1.665131 3.10321,4.450165 3.10321,6.188995c0,1.7388 1.020752,3.161438 2.268311,3.161438c1.247559,0 2.268311,2.489655 2.268311,5.532532c0,3.042877 0.974487,5.532501 2.165527,5.532501c1.19104,0 2.835754,3.485504 3.654907,7.745544c0.819214,4.26004 2.282959,7.745514 3.252808,7.745514c0.96991,0 2.433716,3.485504 3.252808,7.745544c0.819214,4.260071 2.463867,7.745544 3.654907,7.745544c1.19104,0 2.165527,5.975098 2.165527,13.278046c0,7.376678 -1.008057,13.278076 -2.268311,13.278076c-1.247559,0 -2.268311,2.022919 -2.268311,4.495453c0,2.472534 -1.616699,5.100739 -3.592651,5.840515c-2.750793,1.029846 -2.92041,1.750336 -0.723999,3.074707c1.842041,1.110657 -0.119385,2.276581 -5.480591,3.257843c-4.592041,0.840454 -8.349243,2.413147 -8.349243,3.494843c0,1.081665 -1.56311,1.966705 -3.473633,1.966705c-1.910553,0 -4.061218,1.493805 -4.779297,3.319519c-0.71817,1.825714 -2.642517,3.319489 -4.276459,3.319489c-1.633911,0 -3.327362,1.043793 -3.763214,2.319519c-0.435852,1.275665 -6.645386,2.908783 -13.79895,3.629089c-7.153503,0.720306 -13.006378,2.075928 -13.006378,3.012451c0,0.936554 -13.269623,2.418823 -29.488068,3.293915c-16.218445,0.875122 -29.488098,2.459137 -29.488098,3.520111c0,1.060974 -5.614044,1.928986 -12.475708,1.928986c-6.861633,0 -12.475739,0.99588 -12.475739,2.213074c0,1.266296 -6.849518,2.212982 -16.012054,2.212982c-10.097076,0 -15.494171,-0.817535 -14.610168,-2.212982zm28.779236,-220.599701c-1.637451,-0.639252 -3.593811,-0.560638 -4.347595,0.174683c-0.753723,0.735413 0.585999,1.258423 2.977173,1.162354c2.642456,-0.106201 3.179932,-0.630615 1.370422,-1.337036zm-167.107941,84.493378c-3.721619,-1.97229 -8.609879,-5.516388 -10.862839,-7.875702c-2.25296,-2.359314 -4.966614,-4.289642 -6.030334,-4.289642c-1.063736,0 -2.574524,-2.489624 -3.35733,-5.532501c-0.782806,-3.042908 -2.424576,-5.532532 -3.648361,-5.532532c-1.223816,0 -2.225098,-2.520874 -2.225098,-5.601959c0,-3.081146 -1.531113,-6.175201 -3.402481,-6.875824c-1.871353,-0.700623 -3.402466,-3.10022 -3.402466,-5.332458c0,-2.232239 -0.92511,-4.616455 -2.055801,-5.298218c-1.130692,-0.681763 -2.785355,-6.466736 -3.677002,-12.855438c-0.891663,-6.388672 -2.77359,-12.325531 -4.182068,-13.192993c-1.665894,-1.02597 -2.560852,-10.689209 -2.560852,-27.650177l0,-26.072937l7.939102,-2.653809c4.366501,-1.459625 6.91835,-2.766251 5.670776,-2.903656c-1.247574,-0.13739 1.304291,-1.49263 5.670792,-3.011658c8.106445,-2.820068 20.41481,-0.873779 20.41481,3.228149c0,1.098083 2.041473,1.996521 4.536621,1.996521c2.495148,0 4.536636,0.99585 4.536636,2.212997c0,1.217178 1.101318,2.213028 2.447388,2.213028c1.346054,0 7.040726,4.481354 12.654785,9.958527c5.61409,5.477203 11.128113,9.958557 12.253448,9.958557c1.125305,0 2.686462,2.489624 3.469284,5.532516c0.782791,3.042877 2.202927,5.532532 3.155777,5.532532c0.952881,0 2.385406,3.983429 3.18338,8.852036c0.797974,4.868622 2.440125,8.85202 3.64917,8.85202c1.209045,0 2.838745,2.489624 3.621552,5.532532c0.782806,3.042908 2.333344,5.532532 3.445679,5.532532c1.112335,0 2.02243,1.991699 2.02243,4.426025c0,2.434326 1.020721,4.426025 2.268311,4.426025c1.321777,0 2.268311,7.33313 2.268311,17.573456c0,9.665405 -1.020752,18.188934 -2.268311,18.941193c-1.247589,0.752228 -2.268311,3.359406 -2.268311,5.793732c0,2.434296 -1.020752,3.810547 -2.268341,3.058289c-1.247559,-0.752228 -2.26828,0.216095 -2.26828,2.151886c0,1.93576 -1.786316,4.162537 -3.969574,4.948425c-2.183258,0.785889 -4.619263,2.373322 -5.413361,3.527588c-0.794098,1.154297 -8.449661,2.530334 -17.01236,3.057861c-11.533737,0.710602 -17.322144,0.029816 -22.335083,-2.626923zm319.558441,-6.433075c-0.674927,-1.715912 -3.637024,-3.7099 -6.58252,-4.431183c-2.945496,-0.721252 -6.071472,-3.549713 -6.946594,-6.285461c-0.875061,-2.735809 -2.218994,-5.472076 -2.98645,-6.080658c-4.522461,-3.585785 -7.066345,-12.784058 -7.066345,-25.550171c0,-10.01297 -0.777283,-14.076508 -2.49469,-13.041046c-1.813843,1.093781 -1.813843,0.263336 0,-3.043396c1.37207,-2.50119 2.49469,-8.108307 2.49469,-12.460297c0,-5.174133 1.570068,-9.224304 4.53656,-11.702347c2.495239,-2.084335 4.552246,-6.306946 4.571411,-9.383621c0.030396,-4.893982 4.376892,-15.070618 4.467163,-10.459229c0.087646,4.479431 11.376343,-10.777008 11.376343,-15.374969c0,-3.293976 1.330811,-5.209381 3.619263,-5.209381c1.990723,0 6.501709,-2.002335 10.024536,-4.4496c10.511108,-7.302109 47.600586,-5.602081 47.600586,2.181824c0,1.247284 1.36731,2.267776 3.03833,2.267776c3.175171,0 8.303223,8.948151 8.303223,14.488678c0,1.768478 1.020752,3.215393 2.268311,3.215393c1.368164,0 2.268311,9.220901 2.268311,23.236603c0,12.780121 -0.890259,23.236603 -1.978394,23.236603c-1.088135,0 -2.642456,4.0513 -3.453979,9.002869c-0.843506,5.146484 -3.88269,11.351318 -7.09491,14.485168c-3.090515,3.015259 -5.619141,6.930786 -5.619141,8.701172c0,1.770416 -1.020813,3.218964 -2.268372,3.218964c-1.247559,0 -2.268311,1.525024 -2.268311,3.388916c0,1.863983 -1.430542,3.924561 -3.178955,4.579132c-1.748413,0.654572 -3.693665,3.110291 -4.322632,5.457153c-0.629089,2.346893 -3.536743,5.202454 -6.461426,6.345673c-3.143799,1.228882 -3.926636,2.199585 -1.915222,2.374451c9.542664,0.829651 -7.602478,4.117889 -22.187195,4.255219c-12.230591,0.115204 -16.834961,-0.654022 -17.74353,-2.964233l-0.000061,0zm-370.275696,-100.891678c0,-3.042877 0.514847,-4.287674 1.144119,-2.766235c0.629257,1.521439 0.629257,4.011078 0,5.532516c-0.629272,1.521439 -1.144119,0.276627 -1.144119,-2.766281zm143.270813,-1.567474c0.843994,-1.332321 -1.275635,-2.85527 -4.979919,-3.578049c-7.348999,-1.433975 -22.965088,-15.213974 -22.965088,-20.264969c0,-1.847244 -0.958191,-3.358627 -2.129303,-3.358627c-1.171143,0 -2.816589,-4.471161 -3.656555,-9.935928c-0.839966,-5.464783 -2.433624,-9.38942 -3.541473,-8.721436c-1.107788,0.667984 -2.014221,-1.890594 -2.014221,-5.685715c0,-4.036621 -0.941345,-6.332642 -2.268311,-5.532532c-1.328003,0.80072 -2.33313,-1.667969 -2.424652,-5.95517c-0.488861,-22.896484 -2.221222,-56.839661 -3.169128,-62.094879c-0.60379,-3.347168 -0.102509,-6.08577 1.113861,-6.08577c1.21637,0 2.211609,-3.046341 2.211609,-6.769638c0,-3.949554 0.944916,-6.19989 2.268311,-5.401917c1.247589,0.752251 2.268311,-0.18483 2.268311,-2.082397c0,-1.897568 1.531097,-3.450119 3.402466,-3.450119c1.871368,0 3.402466,-1.601746 3.402466,-3.559425c0,-2.691658 1.382507,-3.220894 5.670807,-2.17086c4.184723,1.024719 5.670776,0.50766 5.670776,-1.973091c0,-3.82856 9.105499,-4.582054 15.341888,-1.269562c2.166321,1.150658 7.766541,2.689568 12.444946,3.419785c4.678406,0.730217 8.506165,2.201813 8.506165,3.27018c0,2.423424 13.307983,15.56102 15.762756,15.56102c0.992188,0 2.443146,3.899918 3.224365,8.666435c0.781311,4.766548 2.187622,8.998932 3.125305,9.405296c0.937683,0.406357 3.746368,4.65876 6.241455,9.449753c3.948761,7.582138 4.510193,12.842087 4.332581,40.591232c-0.119385,18.638596 -1.148926,32.485046 -2.47876,33.336258c-1.251038,0.800797 -2.909119,4.639694 -3.684662,8.530945c-1.592834,7.99173 -7.869751,16.161636 -12.416992,16.161636c-1.667755,0 -2.503723,0.83429 -1.857727,1.853973c0.645935,1.019699 -3.631989,2.941559 -9.5065,4.270752c-5.874512,1.329208 -12.634644,3.153778 -15.022583,4.054611c-2.804382,1.057953 -3.82135,0.816513 -2.872192,-0.681793zm126.300262,-18.349609c0,-1.217148 -1.786255,-2.230209 -3.969513,-2.251236c-5.450073,-0.05249 -14.176941,-9.496597 -14.176941,-15.342087c0,-2.638885 -1.020752,-4.18251 -2.268311,-3.430252c-1.47348,0.888428 -2.268372,-10.181442 -2.268372,-31.589203c0,-18.126282 -0.704285,-33.644043 -1.565063,-34.483887c-0.86087,-0.839844 -1.288208,-6.731972 -0.949738,-13.093636c0.638,-11.990089 7.385925,-25.951233 12.543182,-25.951233c1.569305,0 4.076111,-2.618309 5.570709,-5.818497c1.494507,-3.200172 3.301544,-5.248528 4.015503,-4.55191c0.714081,0.696617 4.73233,-0.529099 8.929504,-2.723793c8.246338,-4.312019 27.463135,-4.834068 30.062897,-0.816704c0.826843,1.277695 6.562866,2.809425 12.746765,3.403809c6.183929,0.594398 11.666504,2.318878 12.183533,3.832184c0.517059,1.51329 2.857849,4.353493 5.201843,6.311516c2.343964,1.958038 4.261688,4.749527 4.261688,6.203339c0,1.453781 1.250122,3.049789 2.777985,3.546677c3.839478,1.248611 4.063416,60.884659 0.237244,63.192062c-1.46051,0.880798 -3.357483,4.330109 -4.215393,7.6651c-0.857941,3.334991 -2.388855,6.063599 -3.4021,6.063599c-1.013184,0 -2.514771,2.987549 -3.336792,6.639038c-0.822021,3.651459 -2.434265,6.639023 -3.582672,6.639023c-1.148468,0 -2.088135,1.541321 -2.088135,3.425186c0,4.168945 -10.768494,14.27887 -15.209106,14.27887c-1.762848,0 -2.643372,0.886673 -1.956909,1.970383c0.686462,1.083664 -2.315491,2.622574 -6.671112,3.419754c-4.35556,0.797226 -7.91922,2.400192 -7.91922,3.56218c0,1.162018 -5.614044,2.112747 -12.475739,2.112747c-6.861664,0 -12.475739,-0.99585 -12.475739,-2.213028zm21.029144,-147.395638c0.753754,-0.735359 2.710205,-0.813972 4.347595,-0.174713c1.80954,0.706459 1.272034,1.230843 -1.370422,1.337036c-2.391174,0.096092 -3.730835,-0.426949 -2.977173,-1.162323z"/>
  </g>
 </g>
</svg>